<svg enable-background="new 0 0 130 130" viewBox="0 0 130 130" xmlns="http://www.w3.org/2000/svg"><g fill="#66c30f"><path d="m61.21 25.71c9.51 12.03 22.55-13.19 22.53-25.71-6.29 9.82-31.23 13.57-22.53 25.71z"/><path d="m39.05 14.3c5.83 5.7-8.24 11.18-14.86 10.46 5.55-2.77 8.93-15.74 14.86-10.46z"/><path d="m59.09 65.92c-4.3 16.45-28.76-3.35-34.31-16.07 10.76 7.16 37.74-.12 34.31 16.07z"/></g><path d="m59.73 31.96c.7-7.09 6.38-7.24 9.76-13.51-5 5.67-9.34 5.71-11.04 11.62-4.46-6.23-10.51-11.54-18.63-15.07-.1-.09-.2-.16-.29-.16-.02 0-.03.01-.05.01-.28-.12-.53-.26-.82-.37.21.14.4.29.6.43-1.85.45-2.54 2.05-4.24 2.73 1.98-.53 2.65-2.21 4.83-2.31 19.25 13.35 23.92 35.23 24.22 52.11-5.07-4.86-10.09-2.85-18.71-6.43 7.33 5.24 13.89 2.44 18.72 9.55-.15 12.02-2.32 20.8-2.32 20.8h7.91c.01 0 5.65-35.42-9.94-59.4z" fill="#378f00"/><path d="m115.18 130h-100.36c0-22.85 22.47-41.37 50.18-41.37s50.18 18.52 50.18 41.37z" fill="#662b13"/><path d="m53.04 118.18c0 2.25-3.34 4.07-7.46 4.07s-7.46-1.82-7.46-4.07 3.34-4.07 7.46-4.07 7.46 1.83 7.46 4.07z" fill="#33190f"/><path d="m87.49 107.99c0 3.38-4.02 6.13-8.99 6.13s-8.99-2.74-8.99-6.13c0-3.38 4.02-6.13 8.99-6.13s8.99 2.74 8.99 6.13z" fill="#33190f"/></svg>